<svg viewBox="0 0 800 400" xmlns="http://www.w3.org/2000/svg">
  <!-- Background -->
  <rect width="800" height="400" fill="#1a1a2e"/>

  <!-- Grid lines -->
  <g stroke="#2a2a3e" stroke-width="1">
    <!-- Vertical grid lines -->
    <line x1="100" y1="50" x2="100" y2="350"/>
    <line x1="200" y1="50" x2="200" y2="350"/>
    <line x1="300" y1="50" x2="300" y2="350"/>
    <line x1="400" y1="50" x2="400" y2="350"/>
    <line x1="500" y1="50" x2="500" y2="350"/>
    <line x1="600" y1="50" x2="600" y2="350"/>
    <line x1="700" y1="50" x2="700" y2="350"/>

    <!-- Horizontal grid lines -->
    <line x1="100" y1="100" x2="700" y2="100"/>
    <line x1="100" y1="150" x2="700" y2="150"/>
    <line x1="100" y1="200" x2="700" y2="200"/>
    <line x1="100" y1="250" x2="700" y2="250"/>
    <line x1="100" y1="300" x2="700" y2="300"/>
  </g>

  <!-- Axis -->
  <g stroke="#ffffff" stroke-width="2">
    <line x1="100" y1="350" x2="700" y2="350"/>
    <line x1="100" y1="50" x2="100" y2="350"/>
  </g>

  <!-- Curve -->
  <path d="M100 350 Q 200 340, 300 300 T 500 200 T 700 50"
        fill="none"
        stroke="#4CAF50"
        stroke-width="3"/>

  <!-- Gradient overlay on curve -->
  <path d="M100 350 Q 200 340, 300 300 T 500 200 T 700 50"
        fill="none"
        stroke="url(#gradient)"
        stroke-width="3"
        opacity="0.6"/>

  <!-- Labels -->
  <g fill="#ffffff" font-family="Arial" font-size="14">
    <text x="380" y="380">Supply</text>
    <text x="60" y="200" transform="rotate(-90 60,200)">Price</text>
  </g>

  <!-- Points on curve with tooltips -->
  <g>
    <circle cx="200" cy="340" r="4" fill="#FFD700"/>
    <circle cx="400" cy="250" r="4" fill="#FFD700"/>
    <circle cx="600" cy="100" r="4" fill="#FFD700"/>
  </g>

  <!-- Gradient definitions -->
  <defs>
    <linearGradient id="gradient" x1="0%" y1="0%" x2="100%" y2="0%">
      <stop offset="0%" style="stop-color:#4CAF50;stop-opacity:1" />
      <stop offset="100%" style="stop-color:#2196F3;stop-opacity:1" />
    </linearGradient>
  </defs>

  <!-- Title -->
  <text x="400" y="30"
        font-family="Arial"
        font-size="20"
        fill="#ffffff"
        text-anchor="middle"
        font-weight="bold">
    Bonding Curve: Price vs Supply
  </text>
</svg>
